<?xml version="1.0" encoding="UTF-8" standalone="no"?>
<!DOCTYPE svg PUBLIC "-//W3C//DTD SVG 1.1//EN"
 "http://www.w3.org/Graphics/SVG/1.1/DTD/svg11.dtd">
<!-- Generated by graphviz version 2.43.0 (0)
 -->
<!-- Title: flowchart Pages: 1 -->
<svg width="780pt" height="883pt"
 viewBox="0.00 0.00 779.60 883.00" xmlns="http://www.w3.org/2000/svg" xmlns:xlink="http://www.w3.org/1999/xlink">
<g id="graph0" class="graph" transform="scale(1 1) rotate(0) translate(4 879)">
<title>flowchart</title>
<polygon fill="white" stroke="transparent" points="-4,4 -4,-879 775.6,-879 775.6,4 -4,4"/>
<!-- p0 -->
<g id="node1" class="node">
<title>p0</title>
<ellipse fill="black" stroke="black" cx="103.6" cy="-856.4" rx="3.6" ry="3.6"/>
<text text-anchor="middle" x="50" y="-863.8" font-family="Times,serif" font-size="14.00">Channel.fromPath</text>
</g>
<!-- p1 -->
<g id="node2" class="node">
<title>p1</title>
<ellipse fill="none" stroke="black" cx="103.6" cy="-798.2" rx="3.5" ry="3.5"/>
<text text-anchor="middle" x="89.1" y="-805.5" font-family="Times,serif" font-size="14.00">into</text>
</g>
<!-- p0&#45;&gt;p1 -->
<g id="edge1" class="edge">
<title>p0&#45;&gt;p1</title>
<path fill="none" stroke="black" d="M103.6,-852.69C103.6,-845.44 103.6,-825.28 103.6,-811.88"/>
<polygon fill="black" stroke="black" points="107.1,-811.75 103.6,-801.75 100.1,-811.75 107.1,-811.75"/>
<text text-anchor="middle" x="131.1" y="-823.6" font-family="Times,serif" font-size="14.00">input_raw</text>
</g>
<!-- p6 -->
<g id="node3" class="node">
<title>p6</title>
<ellipse fill="none" stroke="black" cx="165.6" cy="-725.6" rx="79.89" ry="18"/>
<text text-anchor="middle" x="165.6" y="-721.9" font-family="Times,serif" font-size="14.00">convert_raw_mzml</text>
</g>
<!-- p1&#45;&gt;p6 -->
<g id="edge2" class="edge">
<title>p1&#45;&gt;p6</title>
<path fill="none" stroke="black" d="M107.07,-796.35C114.82,-794.27 133.72,-788.24 144.6,-776.6 150.63,-770.14 155.06,-761.7 158.26,-753.6"/>
<polygon fill="black" stroke="black" points="161.6,-754.63 161.56,-744.04 154.99,-752.34 161.6,-754.63"/>
<text text-anchor="middle" x="191.1" y="-765.4" font-family="Times,serif" font-size="14.00">raws_convert</text>
</g>
<!-- p16 -->
<g id="node4" class="node">
<title>p16</title>
<ellipse fill="none" stroke="black" cx="41.6" cy="-682.1" rx="3.5" ry="3.5"/>
<text text-anchor="middle" x="19.6" y="-689.4" font-family="Times,serif" font-size="14.00">collect</text>
</g>
<!-- p1&#45;&gt;p16 -->
<g id="edge3" class="edge">
<title>p1&#45;&gt;p16</title>
<path fill="none" stroke="black" d="M100.03,-797.41C88.5,-797.87 52.07,-797.55 36.6,-776.6 18.61,-752.24 29.45,-713.83 36.69,-694.71"/>
<polygon fill="black" stroke="black" points="39.93,-696.01 40.51,-685.43 33.46,-693.34 39.93,-696.01"/>
<text text-anchor="middle" x="88.6" y="-765.4" font-family="Times,serif" font-size="14.00">raws_merge_quant</text>
</g>
<!-- p9 -->
<g id="node8" class="node">
<title>p9</title>
<ellipse fill="none" stroke="black" cx="381.6" cy="-638.6" rx="72.59" ry="18"/>
<text text-anchor="middle" x="381.6" y="-634.9" font-family="Times,serif" font-size="14.00">db_search_comet</text>
</g>
<!-- p6&#45;&gt;p9 -->
<g id="edge11" class="edge">
<title>p6&#45;&gt;p9</title>
<path fill="none" stroke="black" d="M184.87,-707.99C198.5,-697.04 217.65,-683.18 236.6,-674.6 251.13,-668.02 285.24,-659.67 316.73,-652.78"/>
<polygon fill="black" stroke="black" points="317.8,-656.13 326.84,-650.59 316.32,-649.28 317.8,-656.13"/>
<text text-anchor="middle" x="296.6" y="-678.4" font-family="Times,serif" font-size="14.00">mzmls_search_comet</text>
</g>
<!-- p10 -->
<g id="node15" class="node">
<title>p10</title>
<ellipse fill="none" stroke="black" cx="287.6" cy="-638.6" rx="3.5" ry="3.5"/>
<text text-anchor="middle" x="265.6" y="-645.9" font-family="Times,serif" font-size="14.00">collect</text>
</g>
<!-- p6&#45;&gt;p10 -->
<g id="edge12" class="edge">
<title>p6&#45;&gt;p10</title>
<path fill="none" stroke="black" d="M107.34,-713.19C79.01,-705.1 54.26,-692.49 70.6,-674.6 100.55,-641.82 229.12,-674.85 269.6,-656.6 273.17,-654.99 276.48,-652.38 279.26,-649.67"/>
<polygon fill="black" stroke="black" points="282.12,-651.71 286.02,-641.86 276.83,-647.13 282.12,-651.71"/>
<text text-anchor="middle" x="133.6" y="-678.4" font-family="Times,serif" font-size="14.00">mzmls_peptideprophet</text>
</g>
<!-- p18 -->
<g id="node20" class="node">
<title>p18</title>
<ellipse fill="none" stroke="black" cx="383.6" cy="-159.6" rx="73.39" ry="18"/>
<text text-anchor="middle" x="383.6" y="-155.9" font-family="Times,serif" font-size="14.00">run_merge_quant</text>
</g>
<!-- p16&#45;&gt;p18 -->
<g id="edge22" class="edge">
<title>p16&#45;&gt;p18</title>
<path fill="none" stroke="black" d="M44.63,-680.07C70.64,-671.24 255.6,-607.99 255.6,-596.1 255.6,-596.1 255.6,-596.1 255.6,-217.1 255.6,-190.6 278.85,-176.42 305.53,-168.88"/>
<polygon fill="black" stroke="black" points="306.63,-172.22 315.48,-166.39 304.93,-165.43 306.63,-172.22"/>
</g>
<!-- p2 -->
<g id="node5" class="node">
<title>p2</title>
<ellipse fill="black" stroke="black" cx="619.6" cy="-798.2" rx="3.6" ry="3.6"/>
<text text-anchor="middle" x="566" y="-805.6" font-family="Times,serif" font-size="14.00">Channel.fromPath</text>
</g>
<!-- p3 -->
<g id="node6" class="node">
<title>p3</title>
<ellipse fill="none" stroke="black" cx="619.6" cy="-725.6" rx="3.5" ry="3.5"/>
<text text-anchor="middle" x="605.1" y="-732.9" font-family="Times,serif" font-size="14.00">into</text>
</g>
<!-- p2&#45;&gt;p3 -->
<g id="edge4" class="edge">
<title>p2&#45;&gt;p3</title>
<path fill="none" stroke="black" d="M619.6,-794.52C619.6,-785.61 619.6,-756.58 619.6,-739.49"/>
<polygon fill="black" stroke="black" points="623.1,-739.28 619.6,-729.28 616.1,-739.28 623.1,-739.28"/>
<text text-anchor="middle" x="650.1" y="-765.4" font-family="Times,serif" font-size="14.00">input_fasta</text>
</g>
<!-- p13 -->
<g id="node7" class="node">
<title>p13</title>
<ellipse fill="none" stroke="black" cx="383.6" cy="-377.6" rx="50.09" ry="18"/>
<text text-anchor="middle" x="383.6" y="-373.9" font-family="Times,serif" font-size="14.00">run_stpeter</text>
</g>
<!-- p3&#45;&gt;p13 -->
<g id="edge5" class="edge">
<title>p3&#45;&gt;p13</title>
<path fill="none" stroke="black" d="M620.22,-721.91C622.9,-709.7 632.74,-658.49 618.6,-620.6 580.19,-517.69 471.92,-435.68 416.77,-399.18"/>
<polygon fill="black" stroke="black" points="418.37,-396.04 408.08,-393.51 414.54,-401.9 418.37,-396.04"/>
<text text-anchor="middle" x="626.1" y="-547.9" font-family="Times,serif" font-size="14.00">fasta_stpeter</text>
</g>
<!-- p3&#45;&gt;p9 -->
<g id="edge6" class="edge">
<title>p3&#45;&gt;p9</title>
<path fill="none" stroke="black" d="M616.15,-724.12C600.51,-721.85 534.85,-711.4 485.6,-689.6 474.44,-684.66 473.35,-680.37 462.6,-674.6 451.74,-668.77 439.7,-663.14 428.3,-658.17"/>
<polygon fill="black" stroke="black" points="429.49,-654.87 418.92,-654.16 426.74,-661.31 429.49,-654.87"/>
<text text-anchor="middle" x="539.6" y="-678.4" font-family="Times,serif" font-size="14.00">fasta_search_comet</text>
</g>
<!-- p22 -->
<g id="node9" class="node">
<title>p22</title>
<ellipse fill="none" stroke="black" cx="639.6" cy="-72.6" rx="55.79" ry="18"/>
<text text-anchor="middle" x="639.6" y="-68.9" font-family="Times,serif" font-size="14.00">run_final_qc</text>
</g>
<!-- p3&#45;&gt;p22 -->
<g id="edge7" class="edge">
<title>p3&#45;&gt;p22</title>
<path fill="none" stroke="black" d="M622.66,-723.83C640.04,-719.23 725.6,-693.85 725.6,-639.6 725.6,-639.6 725.6,-639.6 725.6,-158.6 725.6,-129.93 701.13,-107.66 678.3,-93.12"/>
<polygon fill="black" stroke="black" points="680.05,-90.09 669.68,-87.93 676.44,-96.09 680.05,-90.09"/>
<text text-anchor="middle" x="748.6" y="-373.9" font-family="Times,serif" font-size="14.00">fasta_qc</text>
</g>
<!-- p11 -->
<g id="node10" class="node">
<title>p11</title>
<ellipse fill="none" stroke="black" cx="381.6" cy="-551.6" rx="79.09" ry="18"/>
<text text-anchor="middle" x="381.6" y="-547.9" font-family="Times,serif" font-size="14.00">run_peptideprophet</text>
</g>
<!-- p3&#45;&gt;p11 -->
<g id="edge8" class="edge">
<title>p3&#45;&gt;p11</title>
<path fill="none" stroke="black" d="M619.03,-721.78C617.13,-713.18 610.17,-687.08 593.6,-674.6 561.36,-650.32 540.67,-674.7 504.6,-656.6 499.47,-654.02 432.03,-591.26 427.6,-587.6 422.62,-583.49 417.25,-579.24 411.98,-575.17"/>
<polygon fill="black" stroke="black" points="413.95,-572.27 403.87,-568.98 409.7,-577.83 413.95,-572.27"/>
<text text-anchor="middle" x="561.6" y="-634.9" font-family="Times,serif" font-size="14.00">fasta_peptideprophet</text>
</g>
<!-- p14 -->
<g id="node18" class="node">
<title>p14</title>
<ellipse fill="none" stroke="black" cx="383.6" cy="-290.6" rx="64.99" ry="18"/>
<text text-anchor="middle" x="383.6" y="-286.9" font-family="Times,serif" font-size="14.00">convert_stpeter</text>
</g>
<!-- p13&#45;&gt;p14 -->
<g id="edge19" class="edge">
<title>p13&#45;&gt;p14</title>
<path fill="none" stroke="black" d="M383.6,-359.4C383.6,-347.76 383.6,-332.15 383.6,-318.84"/>
<polygon fill="black" stroke="black" points="387.1,-318.78 383.6,-308.78 380.1,-318.78 387.1,-318.78"/>
<text text-anchor="middle" x="422.6" y="-330.4" font-family="Times,serif" font-size="14.00">stpeter_output</text>
</g>
<!-- p9&#45;&gt;p11 -->
<g id="edge15" class="edge">
<title>p9&#45;&gt;p11</title>
<path fill="none" stroke="black" d="M381.6,-620.4C381.6,-608.76 381.6,-593.15 381.6,-579.84"/>
<polygon fill="black" stroke="black" points="385.1,-579.78 381.6,-569.78 378.1,-579.78 385.1,-579.78"/>
<text text-anchor="middle" x="402.6" y="-591.4" font-family="Times,serif" font-size="14.00">pepxml</text>
</g>
<!-- p24 -->
<g id="node24" class="node">
<title>p24</title>
<ellipse fill="black" stroke="black" cx="597.6" cy="-1.8" rx="1.8" ry="1.8"/>
</g>
<!-- p22&#45;&gt;p24 -->
<g id="edge30" class="edge">
<title>p22&#45;&gt;p24</title>
<path fill="none" stroke="black" d="M614.83,-56.12C608.39,-50.78 602.24,-44.2 598.6,-36.6 595.23,-29.56 595.09,-20.71 595.73,-13.83"/>
<polygon fill="black" stroke="black" points="599.23,-14.13 597.38,-3.7 592.32,-13.01 599.23,-14.13"/>
<text text-anchor="middle" x="629.1" y="-25.4" font-family="Times,serif" font-size="14.00">parameters</text>
</g>
<!-- p23 -->
<g id="node25" class="node">
<title>p23</title>
<ellipse fill="black" stroke="black" cx="681.6" cy="-1.8" rx="1.8" ry="1.8"/>
</g>
<!-- p22&#45;&gt;p23 -->
<g id="edge31" class="edge">
<title>p22&#45;&gt;p23</title>
<path fill="none" stroke="black" d="M649.98,-54.59C658.08,-41.32 669.05,-23.37 675.7,-12.46"/>
<polygon fill="black" stroke="black" points="678.89,-13.95 681.12,-3.59 672.92,-10.31 678.89,-13.95"/>
<text text-anchor="middle" x="702.1" y="-25.4" font-family="Times,serif" font-size="14.00">benchmarks</text>
</g>
<!-- p12 -->
<g id="node17" class="node">
<title>p12</title>
<ellipse fill="none" stroke="black" cx="382.6" cy="-464.6" rx="78.79" ry="18"/>
<text text-anchor="middle" x="382.6" y="-460.9" font-family="Times,serif" font-size="14.00">run_proteinprophet</text>
</g>
<!-- p11&#45;&gt;p12 -->
<g id="edge17" class="edge">
<title>p11&#45;&gt;p12</title>
<path fill="none" stroke="black" d="M381.8,-533.4C381.94,-521.76 382.12,-506.15 382.28,-492.84"/>
<polygon fill="black" stroke="black" points="385.78,-492.82 382.4,-482.78 378.78,-492.73 385.78,-492.82"/>
<text text-anchor="middle" x="426.1" y="-504.4" font-family="Times,serif" font-size="14.00">interact_pepxml</text>
</g>
<!-- p4 -->
<g id="node11" class="node">
<title>p4</title>
<ellipse fill="black" stroke="black" cx="362.6" cy="-856.4" rx="3.6" ry="3.6"/>
<text text-anchor="middle" x="309" y="-863.8" font-family="Times,serif" font-size="14.00">Channel.fromPath</text>
</g>
<!-- p7 -->
<g id="node12" class="node">
<title>p7</title>
<ellipse fill="none" stroke="black" cx="362.6" cy="-798.2" rx="3.5" ry="3.5"/>
<text text-anchor="middle" x="336.1" y="-805.5" font-family="Times,serif" font-size="14.00">ifEmpty</text>
</g>
<!-- p4&#45;&gt;p7 -->
<g id="edge9" class="edge">
<title>p4&#45;&gt;p7</title>
<path fill="none" stroke="black" d="M362.6,-852.69C362.6,-845.44 362.6,-825.28 362.6,-811.88"/>
<polygon fill="black" stroke="black" points="366.1,-811.75 362.6,-801.75 359.1,-811.75 366.1,-811.75"/>
<text text-anchor="middle" x="417.6" y="-823.6" font-family="Times,serif" font-size="14.00">input_comet_param</text>
</g>
<!-- p8 -->
<g id="node16" class="node">
<title>p8</title>
<ellipse fill="none" stroke="black" cx="362.6" cy="-725.6" rx="98.58" ry="18"/>
<text text-anchor="middle" x="362.6" y="-721.9" font-family="Times,serif" font-size="14.00">set_comet_configuration</text>
</g>
<!-- p7&#45;&gt;p8 -->
<g id="edge13" class="edge">
<title>p7&#45;&gt;p8</title>
<path fill="none" stroke="black" d="M362.6,-794.52C362.6,-787.85 362.6,-769.9 362.6,-754.13"/>
<polygon fill="black" stroke="black" points="366.1,-753.73 362.6,-743.73 359.1,-753.73 366.1,-753.73"/>
</g>
<!-- p5 -->
<g id="node13" class="node">
<title>p5</title>
<ellipse fill="black" stroke="black" cx="143.6" cy="-290.6" rx="3.6" ry="3.6"/>
<text text-anchor="middle" x="90" y="-298" font-family="Times,serif" font-size="14.00">Channel.fromPath</text>
</g>
<!-- p17 -->
<g id="node14" class="node">
<title>p17</title>
<ellipse fill="none" stroke="black" cx="183.6" cy="-218.1" rx="3.5" ry="3.5"/>
<text text-anchor="middle" x="157.1" y="-225.4" font-family="Times,serif" font-size="14.00">ifEmpty</text>
</g>
<!-- p5&#45;&gt;p17 -->
<g id="edge10" class="edge">
<title>p5&#45;&gt;p17</title>
<path fill="none" stroke="black" d="M142.82,-287.06C140.59,-279.27 134.93,-255.26 144.6,-239.6 150.3,-230.37 161.66,-225.07 170.65,-222.19"/>
<polygon fill="black" stroke="black" points="171.64,-225.55 180.44,-219.65 169.88,-218.77 171.64,-225.55"/>
<text text-anchor="middle" x="193.1" y="-243.4" font-family="Times,serif" font-size="14.00">input_exp_design</text>
</g>
<!-- p17&#45;&gt;p18 -->
<g id="edge23" class="edge">
<title>p17&#45;&gt;p18</title>
<path fill="none" stroke="black" d="M186.7,-215.81C195.3,-212.26 220.25,-202.17 241.6,-195.6 267.2,-187.73 295.8,-180.4 320.6,-174.51"/>
<polygon fill="black" stroke="black" points="321.68,-177.85 330.61,-172.16 320.07,-171.04 321.68,-177.85"/>
</g>
<!-- p10&#45;&gt;p11 -->
<g id="edge16" class="edge">
<title>p10&#45;&gt;p11</title>
<path fill="none" stroke="black" d="M289.12,-635.02C291.23,-631.55 295.28,-625.27 299.6,-620.6 315,-603.95 334.46,-587.65 350.56,-575.18"/>
<polygon fill="black" stroke="black" points="352.8,-577.88 358.63,-569.03 348.56,-572.31 352.8,-577.88"/>
</g>
<!-- p8&#45;&gt;p9 -->
<g id="edge14" class="edge">
<title>p8&#45;&gt;p9</title>
<path fill="none" stroke="black" d="M360.52,-707.22C359.87,-697.48 359.91,-685.2 362.6,-674.6 363.36,-671.61 364.43,-668.61 365.68,-665.68"/>
<polygon fill="black" stroke="black" points="368.82,-667.21 370.13,-656.7 362.55,-664.11 368.82,-667.21"/>
<text text-anchor="middle" x="412.6" y="-678.4" font-family="Times,serif" font-size="14.00">comet_param_file</text>
</g>
<!-- p12&#45;&gt;p13 -->
<g id="edge18" class="edge">
<title>p12&#45;&gt;p13</title>
<path fill="none" stroke="black" d="M382.8,-446.4C382.94,-434.76 383.12,-419.15 383.28,-405.84"/>
<polygon fill="black" stroke="black" points="386.78,-405.82 383.4,-395.78 379.78,-405.73 386.78,-405.82"/>
<text text-anchor="middle" x="404.6" y="-417.4" font-family="Times,serif" font-size="14.00">protxml</text>
</g>
<!-- p15 -->
<g id="node19" class="node">
<title>p15</title>
<ellipse fill="none" stroke="black" cx="383.6" cy="-218.1" rx="3.5" ry="3.5"/>
<text text-anchor="middle" x="361.6" y="-225.4" font-family="Times,serif" font-size="14.00">collect</text>
</g>
<!-- p14&#45;&gt;p15 -->
<g id="edge20" class="edge">
<title>p14&#45;&gt;p15</title>
<path fill="none" stroke="black" d="M383.6,-272.53C383.6,-259.98 383.6,-243.19 383.6,-231.8"/>
<polygon fill="black" stroke="black" points="387.1,-231.76 383.6,-221.76 380.1,-231.76 387.1,-231.76"/>
<text text-anchor="middle" x="409.6" y="-243.4" font-family="Times,serif" font-size="14.00">protquant</text>
</g>
<!-- p15&#45;&gt;p18 -->
<g id="edge21" class="edge">
<title>p15&#45;&gt;p18</title>
<path fill="none" stroke="black" d="M383.6,-214.37C383.6,-209.43 383.6,-198.5 383.6,-187.77"/>
<polygon fill="black" stroke="black" points="387.1,-187.75 383.6,-177.75 380.1,-187.75 387.1,-187.75"/>
</g>
<!-- p18&#45;&gt;p22 -->
<g id="edge26" class="edge">
<title>p18&#45;&gt;p22</title>
<path fill="none" stroke="black" d="M442.8,-148.79C469.13,-143.25 500.1,-135.09 526.6,-123.6 537.8,-118.75 538.74,-114.17 549.6,-108.6 563.17,-101.63 578.47,-95.19 592.55,-89.79"/>
<polygon fill="black" stroke="black" points="593.93,-93.01 602.06,-86.22 591.47,-86.46 593.93,-93.01"/>
<text text-anchor="middle" x="583.6" y="-112.4" font-family="Times,serif" font-size="14.00">stdprotquant</text>
</g>
<!-- p18&#45;&gt;p22 -->
<g id="edge27" class="edge">
<title>p18&#45;&gt;p22</title>
<path fill="none" stroke="black" d="M455.21,-155.39C514.44,-151.4 592.71,-142.61 617.6,-123.6 625.16,-117.83 630.17,-108.91 633.47,-100.19"/>
<polygon fill="black" stroke="black" points="636.82,-101.2 636.52,-90.61 630.15,-99.08 636.82,-101.2"/>
<text text-anchor="middle" x="661.6" y="-112.4" font-family="Times,serif" font-size="14.00">stdpepquant</text>
</g>
<!-- p18&#45;&gt;p22 -->
<g id="edge28" class="edge">
<title>p18&#45;&gt;p22</title>
<path fill="none" stroke="black" d="M414.66,-143.29C425.63,-137.52 437.89,-130.64 448.6,-123.6 457.59,-117.69 457.84,-113.13 467.6,-108.6 501.54,-92.85 542.5,-84.15 575.93,-79.37"/>
<polygon fill="black" stroke="black" points="576.6,-82.81 586.05,-78.01 575.67,-75.88 576.6,-82.81"/>
<text text-anchor="middle" x="495.1" y="-112.4" font-family="Times,serif" font-size="14.00">expdesign</text>
</g>
<!-- p20 -->
<g id="node21" class="node">
<title>p20</title>
<ellipse fill="black" stroke="black" cx="294.6" cy="-72.6" rx="1.8" ry="1.8"/>
</g>
<!-- p18&#45;&gt;p20 -->
<g id="edge24" class="edge">
<title>p18&#45;&gt;p20</title>
<path fill="none" stroke="black" d="M342.72,-144.44C332.15,-139.22 321.53,-132.37 313.6,-123.6 303.55,-112.49 298.62,-95.53 296.35,-84.5"/>
<polygon fill="black" stroke="black" points="299.77,-83.71 294.69,-74.41 292.86,-84.85 299.77,-83.71"/>
<text text-anchor="middle" x="346.6" y="-112.4" font-family="Times,serif" font-size="14.00">allprotquant</text>
</g>
<!-- p19 -->
<g id="node22" class="node">
<title>p19</title>
<ellipse fill="black" stroke="black" cx="383.6" cy="-72.6" rx="1.8" ry="1.8"/>
</g>
<!-- p18&#45;&gt;p19 -->
<g id="edge25" class="edge">
<title>p18&#45;&gt;p19</title>
<path fill="none" stroke="black" d="M383.6,-141.4C383.6,-124.52 383.6,-99.26 383.6,-84.82"/>
<polygon fill="black" stroke="black" points="387.1,-84.68 383.6,-74.68 380.1,-84.68 387.1,-84.68"/>
<text text-anchor="middle" x="415.6" y="-112.4" font-family="Times,serif" font-size="14.00">allpepquant</text>
</g>
<!-- p21 -->
<g id="node23" class="node">
<title>p21</title>
<ellipse fill="black" stroke="black" cx="758.6" cy="-159.6" rx="3.6" ry="3.6"/>
</g>
<!-- p21&#45;&gt;p22 -->
<g id="edge29" class="edge">
<title>p21&#45;&gt;p22</title>
<path fill="none" stroke="black" d="M758.18,-155.89C756.74,-147.61 751.29,-122.32 736.6,-108.6 725.44,-98.17 710.94,-90.81 696.58,-85.63"/>
<polygon fill="black" stroke="black" points="697.29,-82.17 686.69,-82.37 695.1,-88.82 697.29,-82.17"/>
<text text-anchor="middle" x="756.1" y="-112.4" font-family="Times,serif" font-size="14.00">foo</text>
</g>
</g>
</svg>
